<svg width="128" height="128" viewBox="0 0 128 128" fill="none" xmlns="http://www.w3.org/2000/svg">
<path d="M106.667 69.3331C106.667 95.9998 88 109.333 65.8133 117.066C64.6515 117.46 63.3895 117.441 62.24 117.013C40 109.333 21.3333 95.9998 21.3333 69.3331V31.9998C21.3333 30.5853 21.8952 29.2288 22.8954 28.2286C23.8956 27.2284 25.2522 26.6665 26.6666 26.6665C37.3333 26.6665 50.6666 20.2665 59.9466 12.1598C61.0765 11.1945 62.5139 10.6641 64 10.6641C65.4861 10.6641 66.9234 11.1945 68.0533 12.1598C77.3866 20.3198 90.6666 26.6665 101.333 26.6665C102.748 26.6665 104.104 27.2284 105.105 28.2286C106.105 29.2288 106.667 30.5853 106.667 31.9998V69.3331Z" stroke="#F7F7F7" stroke-width="2" stroke-linecap="round" stroke-linejoin="round"/>
<path d="M48 64.0026L58.6667 74.6693L80 53.3359" stroke="#F7F7F7" stroke-width="2" stroke-linecap="round" stroke-linejoin="round"/>
</svg>